<?xml version="1.0" encoding="UTF-8"?>
<svg id="Layer_2" data-name="Layer 2" xmlns="http://www.w3.org/2000/svg" viewBox="0 0 134.74 181.53">
  <defs>
    <style>
      .cls-1 {
        fill: #231f20;
      }
    </style>
  </defs>
  <g id="Layer_1-2" data-name="Layer 1">
    <g>
      <polygon class="cls-1" points="50.6 118.85 76.25 144.5 76.3 151.33 43.83 118.85 61.76 100.93 52.6 91.77 34.42 109.94 0 75.51 34.42 41.08 52.57 59.22 61.57 50.22 43.83 32.48 76.3 0 76.16 6.33 50.6 32.48 64.95 46.84 64.98 46.81 68.37 50.19 55.96 62.6 55.98 62.63 52.59 66.01 34.42 47.85 6.77 75.51 34.42 103.16 52.59 85 54.28 86.69 55.98 88.39 68.54 100.93 65.15 104.32 65.14 104.31 50.6 118.85"/>
      <path class="cls-1" d="M134.74,75.48c0,2.2-1.79,3.99-3.99,3.99h-40.11v98.07c0,2.2-1.78,3.99-3.99,3.99s-3.99-1.79-3.99-3.99V79.47H42.54c-2.2,0-3.99-1.79-3.99-3.99s1.79-3.99,3.99-3.99h40.1V3.99c0-2.2,1.79-3.99,3.99-3.99s3.99,1.79,3.99,3.99V71.49h40.11c2.2,0,3.99,1.79,3.99,3.99Z"/>
      <polygon class="cls-1" points="54.18 88.39 52.48 86.69 52.49 86.69 54.18 88.39"/>
    </g>
  </g>
</svg>